<svg width="432" height="432" viewBox="0 0 432 432" fill="none" xmlns="http://www.w3.org/2000/svg">
<rect width="432" height="432" rx="78" fill="#DB2777"/>
<path d="M216 414C163.1 414 113.4 393.4 76 356C38.6 318.6 18 268.9 18 216C18 163.1 38.6 113.4 76 76C113.4 38.6 163.1 18 216 18C268.9 18 318.6 38.6 356 76C393.4 113.4 414 163.1 414 216C414 268.9 393.4 318.6 356 356C318.6 393.4 268.9 414 216 414ZM216 34.1C115.7 34.1 34.1 115.7 34.1 216C34.1 316.3 115.7 397.9 216 397.9C316.3 397.9 397.9 316.3 397.9 216C397.9 115.7 316.3 34.1 216 34.1ZM192.4 158L76.8 129.4L153.6 220.5L90.6 321.7L201 276.8L277.8 367.9L269.2 249.1L379.6 204.2L264 175.6L255.4 56.8L192.4 158Z" fill="white"/>
</svg>
