<?xml version="1.0" encoding="UTF-8"?>
<svg width="601px" height="121px" viewBox="0 0 601 121" version="1.1" xmlns="http://www.w3.org/2000/svg" xmlns:xlink="http://www.w3.org/1999/xlink">
    <title>stargaze_logo</title>
    <defs>
        <linearGradient x1="0.0995425432%" y1="47.2856461%" x2="104.967972%" y2="50.3175741%" id="linearGradient-1">
            <stop stop-color="#FFF59E" offset="0%"></stop>
            <stop stop-color="#81EFD9" offset="63.5417%"></stop>
            <stop stop-color="#6B9BE3" offset="100%"></stop>
        </linearGradient>
    </defs>
    <g id="Page-1" stroke="none" stroke-width="1" fill="none" fill-rule="evenodd">
        <g id="stargaze_logo" transform="translate(0.357912, -0.000003)" fill="url(#linearGradient-1)">
            <path d="M30.979564,26.2879963 L58.118171,26.2879963 L58.118171,0.0714401675 L31.4981579,0.0714401675 C5.05097584,-0.65177448 0.729544487,3.68751341 0.0134221518,32.9777569 L0.0134221518,40.3904807 C-0.307593002,66.607389 5.05097584,74.0201128 24.5838576,73.4778778 L29.4238326,73.4778778 L29.4238326,94.451002 L0.556663089,94.451002 L0.556663089,120.667407 L29.2510015,120.667407 C49.993701,120.667407 51.3769534,120.306253 56.5623893,113.977999 C60.0195143,108.19198 60.7111405,104.395329 61.2297344,86.6766206 L61.2297344,79.2633938 C61.2297344,53.7703038 56.0437954,46.899815 36.5110142,47.2614726 L30.979564,47.2614726 L30.979564,26.2879963 Z M109.629987,26.2875939 L123.631519,26.2875939 L123.631519,0.0710377668 L64.6873623,0.0710377668 L64.6873623,26.2875939 L78.6888945,26.2875939 L78.6888945,120.667407 L109.629987,120.667407 L109.629987,26.2875939 Z M161.288679,120.667407 L130.347084,120.667407 L130.347084,24.6603358 C130.692645,3.32550368 134.668364,0.0710377668 161.485855,0.0710377668 L174.104638,0.0710377668 C200.897482,0.0710377668 204.873201,3.14467487 205.218763,24.6603358 L205.218763,120.667407 L174.27767,120.667407 L174.27767,95.1738143 L161.313326,95.1738143 L161.313326,120.667407 L161.288679,120.667407 Z M174.253023,68.4146711 L174.253023,36.5933272 C174.253023,28.8188452 172.178648,25.3835504 167.684335,25.3835504 C163.190022,25.3835504 161.288679,28.9996237 161.288679,36.5933272 L161.288679,68.4146711 L174.253023,68.4146711 Z M291.277181,23.3945341 C290.413026,2.60208783 286.610339,-0.471549269 263.620182,0.0708365665 L216.430149,0.0708365665 L216.430149,120.666904 L247.371745,120.666904 L247.371745,73.4773748 L251.347463,73.4773748 C257.915649,73.6579521 260.508618,76.7317904 260.336089,84.3255945 L260.336089,100.417095 C260.336089,108.914792 261.027212,115.423623 262.756026,120.666904 L293.697118,120.666904 C292.314369,115.604704 291.277181,108.372557 291.277181,100.417095 L291.277181,81.7939912 C291.623246,68.2340938 287.301462,62.4480748 274.337118,58.8320016 C287.301462,57.7470287 291.795775,50.1537276 291.277181,31.1691167 L291.277181,23.3945341 Z M260.508618,36.9549848 C260.508618,45.4526815 258.952837,47.2604666 251.693025,47.2604666 L247.371745,47.2604666 L247.371745,26.2873927 L251.693025,26.2873927 C258.261713,26.2873927 260.508618,28.9994728 260.508618,36.9549848 Z M376.176183,93.9087671 C376.521744,117.955227 372.89209,121.210145 345.580652,120.667407 L332.788837,120.667407 C303.403023,121.029065 301.329151,118.859622 301.674712,88.1227481 L301.50168,78.7211589 L301.50168,42.5604265 C301.822595,3.32580548 304.415564,-0.109489245 332.76419,0.0713395673 L376.151536,0.0713395673 L376.151536,29.7231401 C372.521378,27.9151035 363.878818,26.649503 353.679972,26.2878957 L342.790003,26.2878957 C333.282784,26.2878957 332.418628,27.1918889 332.418628,37.3171454 L332.418628,80.1672864 C332.245596,92.8237942 333.109751,94.2699217 340.197034,94.451002 L345.20994,94.451002 L345.20994,65.3413358 C345.20994,60.4597124 344.345785,56.3014042 342.790003,51.7814384 L376.151536,51.7814384 L376.151536,93.9087671 L376.176183,93.9087671 Z M386.69544,120.667407 L417.636532,120.667407 L417.636532,95.1738143 L430.600877,95.1738143 L430.600877,120.667407 L461.542472,120.667407 L461.542472,24.6603358 C461.196911,3.14467487 457.221192,0.0710377668 430.428347,0.0710377668 L417.809565,0.0710377668 C391.01672,0.0710377668 387.041002,3.32550368 386.69544,24.6603358 L386.69544,120.667407 Z M430.600877,36.5933272 L430.600877,68.4146711 L417.636532,68.4146711 L417.636532,36.5933272 C417.636532,28.9996237 419.538379,25.3835504 424.032691,25.3835504 C428.527004,25.3835504 430.600877,28.8188452 430.600877,36.5933272 Z M532.069733,0.0710377668 L506.311058,94.450499 L533.971076,94.450499 L530.51043,120.667407 L468.629251,120.667407 L494.731978,26.2875939 L468.975316,26.2875939 L472.60497,0.0710377668 L532.069733,0.0710377668 Z M571.479851,26.2873424 L600,26.2873424 L600,0.0707359663 L571.13278,0.0707359663 C544.166904,-0.290871358 541.229379,3.32525218 540.540267,38.7627699 L540.540267,77.2740254 C540.364217,94.9927339 541.747469,108.010899 544.166904,112.169208 C548.834752,119.943589 550.565075,120.486327 571.13278,120.666904 L600,120.666904 L600,94.450499 L571.479851,94.450499 L571.479851,73.4768718 L600,73.4768718 L600,47.2604666 L571.479851,47.2604666 L571.479851,26.2873424 Z" id="Shape"></path>
        </g>
    </g>
</svg>