<svg width="180" height="180" viewBox="0 0 180 180" fill="none" xmlns="http://www.w3.org/2000/svg">
<path fill-rule="evenodd" clip-rule="evenodd" d="M90 172C135.287 172 172 135.287 172 90C172 44.7127 135.287 8 90 8C44.7127 8 8 44.7127 8 90C8 135.287 44.7127 172 90 172ZM180 90C180 139.706 139.706 180 90 180C40.2944 180 0 139.706 0 90C0 40.2944 40.2944 0 90 0C139.706 0 180 40.2944 180 90Z" fill="white"/>
<path d="M106.69 22.47L110.32 72.88L159.38 85L112.56 104.03L116.19 154.44L83.6301 115.79L36.8101 134.83L63.5001 91.91L30.9301 53.26L79.9901 65.39L106.69 22.47Z" fill="white"/>
</svg>
