<?xml version="1.0" encoding="UTF-8"?>
<svg width="401px" height="81px" viewBox="0 0 401 81" version="1.1" xmlns="http://www.w3.org/2000/svg" xmlns:xlink="http://www.w3.org/1999/xlink">
    <title>stargaze_logo</title>
    <defs>
        <linearGradient x1="0.0995425432%" y1="47.2856461%" x2="104.967972%" y2="50.3175741%" id="linearGradient-1">
            <stop stop-color="#FFF59E" offset="0%"></stop>
            <stop stop-color="#81EFD9" offset="63.5417%"></stop>
            <stop stop-color="#6B9BE3" offset="100%"></stop>
        </linearGradient>
    </defs>
    <g id="Page-1" stroke="none" stroke-width="1" fill="none" fill-rule="evenodd">
        <g id="stargaze_logo" transform="translate(0.357912, -0.000003)" fill="url(#linearGradient-1)">
            <path d="M20.6530427,17.5253309 L38.7454473,17.5253309 L38.7454473,0.0476267783 L20.9987719,0.0476267783 C3.36731723,-0.43451632 0.486362992,2.45834227 0.00894810119,21.9851713 L0.00894810119,26.9269872 C-0.205062001,44.404926 3.36731723,49.3467418 16.3892384,48.9852519 L19.6158884,48.9852519 L19.6158884,62.9673347 L0.371108726,62.9673347 L0.371108726,80.4449382 L19.5006677,80.4449382 C33.329134,80.4449382 34.2513023,80.2041684 37.7082595,75.9853325 C40.0130095,72.1279865 40.4740937,69.5968861 40.8198229,57.7844137 L40.8198229,52.8422625 C40.8198229,35.8468692 37.3625303,31.2665433 24.3406762,31.5076484 L20.6530427,31.5076484 L20.6530427,17.5253309 Z M73.0866579,17.5250626 L82.4210127,17.5250626 L82.4210127,0.0473585112 L43.1249082,0.0473585112 L43.1249082,17.5250626 L52.459263,17.5250626 L52.459263,80.4449382 L73.0866579,80.4449382 L73.0866579,17.5250626 Z M107.525786,80.4449382 L86.8980558,80.4449382 L86.8980558,16.4402239 C87.1284302,2.21700245 89.7789094,0.0473585112 107.657237,0.0473585112 L116.069759,0.0473585112 C133.931655,0.0473585112 136.582134,2.09644991 136.812509,16.4402239 L136.812509,80.4449382 L116.185114,80.4449382 L116.185114,63.4492095 L107.542217,63.4492095 L107.542217,80.4449382 L107.525786,80.4449382 Z M116.168682,45.6097807 L116.168682,24.3955515 C116.168682,19.2125634 114.785765,16.922367 111.789557,16.922367 C108.793348,16.922367 107.525786,19.3330825 107.525786,24.3955515 L107.525786,45.6097807 L116.168682,45.6097807 Z M194.184788,15.5963561 C193.608684,1.73472522 191.07356,-0.31436618 175.746788,0.0472243776 L144.286766,0.0472243776 L144.286766,80.4446028 L164.914496,80.4446028 L164.914496,48.9849166 L167.564976,48.9849166 C171.943766,49.1053014 173.672412,51.154527 173.557393,56.217063 L173.557393,66.9447302 C173.557393,72.6098613 174.018141,76.9490821 175.170684,80.4446028 L195.798079,80.4446028 C194.876246,77.0698023 194.184788,72.2483714 194.184788,66.9447302 L194.184788,54.5293275 C194.415497,45.4893959 191.534308,41.6320499 182.891412,39.2213344 C191.534308,38.4980191 194.530517,33.4358184 194.184788,20.7794112 L194.184788,15.5963561 Z M173.672412,24.6366565 C173.672412,30.3017876 172.635224,31.5069777 167.79535,31.5069777 L164.914496,31.5069777 L164.914496,17.5249285 L167.79535,17.5249285 C172.174476,17.5249285 173.672412,19.3329819 173.672412,24.6366565 Z M250.784122,62.6058447 C251.014496,78.6368177 248.594727,80.8067635 230.387101,80.4449382 L221.859225,80.4449382 C202.268682,80.6860432 200.8861,79.2397481 201.116475,58.7484987 L201.00112,52.4807726 L201.00112,28.3736177 C201.215063,2.21720366 202.943709,-0.0729928298 221.842793,0.0475597116 L250.767691,0.0475597116 L250.767691,19.8154268 C248.347586,18.610069 242.585878,17.7663354 235.786648,17.5252638 L228.526669,17.5252638 C222.188523,17.5252638 221.612419,18.1279259 221.612419,24.878097 L221.612419,53.4448576 C221.497064,61.8825295 222.073168,62.8466145 226.798022,62.9673347 L230.13996,62.9673347 L230.13996,43.5608905 C230.13996,40.3064749 229.563857,37.5342695 228.526669,34.5209589 L250.767691,34.5209589 L250.767691,62.6058447 L250.784122,62.6058447 Z M257.79696,80.4449382 L278.424355,80.4449382 L278.424355,63.4492095 L287.067251,63.4492095 L287.067251,80.4449382 L307.694981,80.4449382 L307.694981,16.4402239 C307.464607,2.09644991 304.814128,0.0473585112 286.952232,0.0473585112 L278.53971,0.0473585112 C260.677814,0.0473585112 258.027334,2.21700245 257.79696,16.4402239 L257.79696,80.4449382 Z M287.067251,24.3955515 L287.067251,45.6097807 L278.424355,45.6097807 L278.424355,24.3955515 C278.424355,19.3330825 279.692252,16.922367 282.688461,16.922367 C285.684669,16.922367 287.067251,19.2125634 287.067251,24.3955515 Z M354.713155,0.0473585112 L337.540706,62.9669993 L355.980717,62.9669993 L353.67362,80.4449382 L312.419501,80.4449382 L329.821319,17.5250626 L312.650211,17.5250626 L315.06998,0.0473585112 L354.713155,0.0473585112 Z M380.986567,17.5248949 L400,17.5248949 L400,0.0471573109 L380.755187,0.0471573109 C362.777936,-0.193914238 360.819586,2.21683479 360.360178,25.8418466 L360.360178,51.5160169 C360.242811,63.3284893 361.16498,72.0072663 362.777936,74.7794717 C365.889834,79.9623927 367.043383,80.324218 380.755187,80.4446028 L400,80.4446028 L400,62.9669993 L380.986567,62.9669993 L380.986567,48.9845812 L400,48.9845812 L400,31.5069777 L380.986567,31.5069777 L380.986567,17.5248949 Z" id="Shape"></path>
        </g>
    </g>
</svg>